<svg xmlns="http://www.w3.org/2000/svg"  viewBox="0 0 64 64" width="64px" height="64px" baseProfile="basic"><path fill="#a2a2ea" d="M7,51V13c0-3.31,2.69-6,6-6h38c3.31,0,6,2.69,6,6v38c0,3.31-2.69,6-6,6H13C9.69,57,7,54.31,7,51z"/><path fill="#8686db" d="M11,57h42c2.209,0,4-1.791,4-4l0,0c0-1.657-1.343-3-3-3H10c-1.657,0-3,1.343-3,3l0,0	C7,55.209,8.791,57,11,57z"/><path fill="#8d6c9f" d="M51,58H13c-3.86,0-7-3.141-7-7V13c0-3.859,3.14-7,7-7h38c3.86,0,7,3.141,7,7v38	C58,54.859,54.86,58,51,58z M13,8c-2.757,0-5,2.243-5,5v38c0,2.757,2.243,5,5,5h38c2.757,0,5-2.243,5-5V13c0-2.757-2.243-5-5-5H13z"/><path fill="#8d6c9f" d="M47,48c-0.552,0-1,0.448-1,1v2c0,0.552,0.448,1,1,1s1-0.448,1-1v-2C48,48.448,47.552,48,47,48z M52,52c0.552,0,1-0.448,1-1v-2c0-0.552-0.448-1-1-1s-1,0.448-1,1v2C51,51.552,51.448,52,52,52z M32,48c-0.552,0-1,0.448-1,1v2	c0,0.552,0.448,1,1,1c0.552,0,1-0.448,1-1v-2C33,48.448,32.552,48,32,48z M27,48c-0.552,0-1,0.448-1,1v2c0,0.552,0.448,1,1,1	s1-0.448,1-1v-2C28,48.448,27.552,48,27,48z M22,48c-0.552,0-1,0.448-1,1v2c0,0.552,0.448,1,1,1s1-0.448,1-1v-2	C23,48.448,22.552,48,22,48z M17,48c-0.552,0-1,0.448-1,1v2c0,0.552,0.448,1,1,1s1-0.448,1-1v-2C18,48.448,17.552,48,17,48z M12,52	c0.552,0,1-0.448,1-1v-2c0-0.552-0.448-1-1-1s-1,0.448-1,1v2C11,51.552,11.448,52,12,52z M42,48c-0.552,0-1,0.448-1,1v2	c0,0.552,0.448,1,1,1s1-0.448,1-1v-2C43,48.448,42.552,48,42,48z M37,48c-0.552,0-1,0.448-1,1v2c0,0.552,0.448,1,1,1s1-0.448,1-1v-2	C38,48.448,37.552,48,37,48z"/><polygon fill="#fff8ee" points="21.093,24.276 23.428,24.276 23.428,28.945 26.541,28.945 26.541,16.493 23.428,16.493 23.428,21.163 21.093,21.163 21.093,16.493 17.981,16.493 17.981,28.945 21.093,28.945"/><path fill="#fff8ee" d="M30.328,28.945h2.257c2.257,0,3.762-1.384,3.762-3.113c0-0.399-0.057-0.776-0.153-1.126 c0.823,2.472,3.139,4.239,5.901,4.239c3.458,0,6.226-2.767,6.226-6.226s-2.767-6.226-6.226-6.226c-2.739,0-5.039,1.739-5.879,4.179 c0.081-0.333,0.131-0.689,0.131-1.066c0-1.729-1.505-3.113-3.762-3.113h-5.265v12.451h2.257H30.328z M42.094,19.606 c1.743,0,3.113,1.37,3.113,3.113c0,1.743-1.37,3.113-3.113,3.113c-1.743,0-3.113-1.37-3.113-3.113 C38.981,20.976,40.351,19.606,42.094,19.606z M36.094,21.066c-0.143,0.526-0.226,1.079-0.226,1.653 c0,0.615,0.091,1.206,0.254,1.766c-0.357-1.045-1.114-1.766-2.033-1.766C35.027,22.719,35.739,22.048,36.094,21.066z M30.432,19.606h1.703c0.545,0,1.021,0.454,1.021,0.973s-0.476,0.973-1.021,0.973h-1.703V19.606z M30.432,23.886h1.703 c0.545,0,1.021,0.455,1.021,0.973c0,0.518-0.476,0.973-1.021,0.973h-1.703V23.886z"/><path fill="#fff8ee" d="M42.093,24.625c1.067,0,1.907-0.838,1.907-1.906c0-1.068-0.839-1.906-1.906-1.906 s-1.907,0.838-1.907,1.906C40.187,23.787,41.026,24.625,42.093,24.625z"/><path fill="#fff8ee" d="M23.065,30.274c-0.971,0.188-1.79,0.724-2.397,1.446c-0.976-1.13-2.506-1.77-4.17-1.446 C14.424,30.679,13,32.623,13,34.738v5.958c0,0.602,0.487,1.089,1.089,1.089h1.09v-7.223c0-1.209,0.984-2.193,2.193-2.193 c1.209,0,2.193,0.984,2.193,2.193v6.134c0,0.602,0.487,1.089,1.089,1.089h1.089v-7.223c0-1.209,0.984-2.193,2.193-2.193 s2.193,0.984,2.193,2.193v6.134c0,0.602,0.487,1.089,1.09,1.089h1.089v-7.223C28.312,31.866,25.858,29.731,23.065,30.274z"/><path fill="#fff8ee" d="M37.903,31.202v0.283c-0.946-0.982-2.201-1.587-3.58-1.587c-2.934,0-5.321,2.714-5.321,6.051 c0,3.337,2.388,6.051,5.321,6.051c1.379,0,2.633-0.605,3.58-1.587v0.283c0,0.602,0.487,1.089,1.089,1.089h1.09V30.112h-1.09 C38.39,30.112,37.903,30.599,37.903,31.202z M34.323,39.819c-1.734,0-3.142-1.735-3.142-3.871c0-2.135,1.41-3.871,3.142-3.871 s3.142,1.735,3.142,3.871C37.465,38.084,36.057,39.819,34.323,39.819z"/><path fill="#fff8ee" d="M48.041,35.1l3.679-4.988H49.8c-0.495,0-0.959,0.235-1.253,0.632l-2.165,2.934 c-0.187,0.254-0.565,0.254-0.752,0l-2.165-2.934c-0.294-0.398-0.758-0.632-1.253-0.632h-1.921l3.679,4.988 c0.405,0.549,0.405,1.298,0,1.847l-3.511,4.76h1.921c0.495,0,0.959-0.235,1.253-0.632l1.997-2.707c0.187-0.254,0.565-0.254,0.752,0 l1.997,2.707c0.294,0.398,0.758,0.632,1.253,0.632h1.921l-3.511-4.76C47.637,36.398,47.637,35.65,48.041,35.1z"/></svg>